<mxfile host="app.diagrams.net" agent="Mozilla/5.0 (Windows NT 10.0; Win64; x64) AppleWebKit/537.36 (KHTML, like Gecko) Chrome/130.0.0.0 Safari/537.36" version="24.8.2">
  <diagram name="Page-1" id="6TQb5GmOqDhMy1bQD5Ka">
    <mxGraphModel dx="1674" dy="746" grid="1" gridSize="10" guides="1" tooltips="1" connect="1" arrows="1" fold="1" page="1" pageScale="1" pageWidth="850" pageHeight="1100" math="0" shadow="0">
      <root>
        <mxCell id="0" />
        <mxCell id="1" parent="0" />
        <mxCell id="5hJDcpedC0Y_jNyVwNAv-2" value="" style="ellipse;html=1;shape=startState;fillColor=#000000;strokeColor=#ff0000;" vertex="1" parent="1">
          <mxGeometry x="225" y="30" width="30" height="30" as="geometry" />
        </mxCell>
        <mxCell id="5hJDcpedC0Y_jNyVwNAv-3" value="" style="edgeStyle=orthogonalEdgeStyle;html=1;verticalAlign=bottom;endArrow=open;endSize=8;strokeColor=#ff0000;rounded=0;" edge="1" source="5hJDcpedC0Y_jNyVwNAv-2" parent="1" target="5hJDcpedC0Y_jNyVwNAv-5">
          <mxGeometry relative="1" as="geometry">
            <mxPoint x="320" y="70" as="targetPoint" />
            <Array as="points">
              <mxPoint x="240" y="90" />
              <mxPoint x="240" y="90" />
            </Array>
          </mxGeometry>
        </mxCell>
        <mxCell id="5hJDcpedC0Y_jNyVwNAv-31" style="edgeStyle=orthogonalEdgeStyle;rounded=0;orthogonalLoop=1;jettySize=auto;html=1;" edge="1" parent="1" source="5hJDcpedC0Y_jNyVwNAv-5" target="5hJDcpedC0Y_jNyVwNAv-30">
          <mxGeometry relative="1" as="geometry" />
        </mxCell>
        <mxCell id="5hJDcpedC0Y_jNyVwNAv-5" value="Enters webpage" style="rounded=1;whiteSpace=wrap;html=1;arcSize=40;fontColor=#000000;fillColor=#ffffc0;strokeColor=#ff0000;" vertex="1" parent="1">
          <mxGeometry x="180" y="110" width="120" height="40" as="geometry" />
        </mxCell>
        <mxCell id="5hJDcpedC0Y_jNyVwNAv-6" value="" style="edgeStyle=orthogonalEdgeStyle;html=1;verticalAlign=bottom;endArrow=open;endSize=8;strokeColor=#ff0000;rounded=0;" edge="1" source="5hJDcpedC0Y_jNyVwNAv-5" parent="1" target="5hJDcpedC0Y_jNyVwNAv-7">
          <mxGeometry relative="1" as="geometry">
            <mxPoint x="420" y="230" as="targetPoint" />
          </mxGeometry>
        </mxCell>
        <mxCell id="5hJDcpedC0Y_jNyVwNAv-24" style="edgeStyle=orthogonalEdgeStyle;rounded=0;orthogonalLoop=1;jettySize=auto;html=1;" edge="1" parent="1" source="5hJDcpedC0Y_jNyVwNAv-7" target="5hJDcpedC0Y_jNyVwNAv-5">
          <mxGeometry relative="1" as="geometry" />
        </mxCell>
        <mxCell id="5hJDcpedC0Y_jNyVwNAv-26" value="display results" style="edgeLabel;html=1;align=center;verticalAlign=middle;resizable=0;points=[];" vertex="1" connectable="0" parent="5hJDcpedC0Y_jNyVwNAv-24">
          <mxGeometry x="0.52" y="-4" relative="1" as="geometry">
            <mxPoint x="36" as="offset" />
          </mxGeometry>
        </mxCell>
        <mxCell id="5hJDcpedC0Y_jNyVwNAv-7" value="takes an action&lt;div&gt;&amp;lt;&amp;lt;event handler&amp;gt;&amp;gt;&lt;/div&gt;&lt;div&gt;app.py&lt;/div&gt;" style="rhombus;whiteSpace=wrap;html=1;fontColor=#000000;fillColor=#ffffc0;strokeColor=#ff0000;" vertex="1" parent="1">
          <mxGeometry x="165" y="180" width="150" height="90" as="geometry" />
        </mxCell>
        <mxCell id="5hJDcpedC0Y_jNyVwNAv-8" value="query previous searches" style="edgeStyle=orthogonalEdgeStyle;html=1;align=left;verticalAlign=bottom;endArrow=open;endSize=8;strokeColor=#ff0000;rounded=0;exitX=1;exitY=0.5;exitDx=0;exitDy=0;" edge="1" source="5hJDcpedC0Y_jNyVwNAv-7" parent="1" target="5hJDcpedC0Y_jNyVwNAv-18">
          <mxGeometry y="-20" relative="1" as="geometry">
            <mxPoint x="340" y="320" as="targetPoint" />
            <mxPoint as="offset" />
          </mxGeometry>
        </mxCell>
        <mxCell id="5hJDcpedC0Y_jNyVwNAv-9" value="new search" style="edgeStyle=orthogonalEdgeStyle;html=1;align=left;verticalAlign=top;endArrow=open;endSize=8;strokeColor=#ff0000;rounded=0;" edge="1" source="5hJDcpedC0Y_jNyVwNAv-7" parent="1" target="5hJDcpedC0Y_jNyVwNAv-16">
          <mxGeometry x="-1" relative="1" as="geometry">
            <mxPoint x="240" y="330" as="targetPoint" />
          </mxGeometry>
        </mxCell>
        <mxCell id="5hJDcpedC0Y_jNyVwNAv-14" value="" style="group" vertex="1" connectable="0" parent="1">
          <mxGeometry x="310" y="450" width="60" height="60" as="geometry" />
        </mxCell>
        <mxCell id="5hJDcpedC0Y_jNyVwNAv-10" value="" style="strokeWidth=2;html=1;shape=mxgraph.flowchart.database;whiteSpace=wrap;movable=1;resizable=1;rotatable=1;deletable=1;editable=1;locked=0;connectable=1;" vertex="1" parent="5hJDcpedC0Y_jNyVwNAv-14">
          <mxGeometry width="60" height="60" as="geometry" />
        </mxCell>
        <mxCell id="5hJDcpedC0Y_jNyVwNAv-12" value="" style="shape=requiredInterface;html=1;verticalLabelPosition=bottom;sketch=0;rotation=90;movable=1;resizable=1;rotatable=1;deletable=1;editable=1;locked=0;connectable=1;" vertex="1" parent="5hJDcpedC0Y_jNyVwNAv-14">
          <mxGeometry x="25" width="10" height="57.5" as="geometry" />
        </mxCell>
        <mxCell id="5hJDcpedC0Y_jNyVwNAv-13" value="" style="shape=requiredInterface;html=1;verticalLabelPosition=bottom;sketch=0;rotation=90;movable=1;resizable=1;rotatable=1;deletable=1;editable=1;locked=0;connectable=1;" vertex="1" parent="5hJDcpedC0Y_jNyVwNAv-14">
          <mxGeometry x="25" y="12.5" width="10" height="57.5" as="geometry" />
        </mxCell>
        <mxCell id="5hJDcpedC0Y_jNyVwNAv-16" value="event routed" style="rounded=1;whiteSpace=wrap;html=1;arcSize=40;fontColor=#000000;fillColor=#ffffc0;strokeColor=#ff0000;" vertex="1" parent="1">
          <mxGeometry x="120" y="330" width="120" height="40" as="geometry" />
        </mxCell>
        <mxCell id="5hJDcpedC0Y_jNyVwNAv-17" value="" style="edgeStyle=orthogonalEdgeStyle;html=1;verticalAlign=bottom;endArrow=open;endSize=8;strokeColor=#ff0000;rounded=0;" edge="1" source="5hJDcpedC0Y_jNyVwNAv-16" parent="1" target="5hJDcpedC0Y_jNyVwNAv-27">
          <mxGeometry relative="1" as="geometry">
            <mxPoint x="180" y="430" as="targetPoint" />
          </mxGeometry>
        </mxCell>
        <mxCell id="5hJDcpedC0Y_jNyVwNAv-18" value="event routed" style="rounded=1;whiteSpace=wrap;html=1;arcSize=40;fontColor=#000000;fillColor=#ffffc0;strokeColor=#ff0000;" vertex="1" parent="1">
          <mxGeometry x="280" y="330" width="120" height="40" as="geometry" />
        </mxCell>
        <mxCell id="5hJDcpedC0Y_jNyVwNAv-19" value="" style="edgeStyle=orthogonalEdgeStyle;html=1;verticalAlign=bottom;endArrow=open;endSize=8;strokeColor=#ff0000;rounded=0;" edge="1" source="5hJDcpedC0Y_jNyVwNAv-18" parent="1" target="5hJDcpedC0Y_jNyVwNAv-10">
          <mxGeometry relative="1" as="geometry">
            <mxPoint x="310" y="410" as="targetPoint" />
            <Array as="points" />
          </mxGeometry>
        </mxCell>
        <mxCell id="5hJDcpedC0Y_jNyVwNAv-22" style="edgeStyle=orthogonalEdgeStyle;rounded=0;orthogonalLoop=1;jettySize=auto;html=1;" edge="1" parent="1" source="5hJDcpedC0Y_jNyVwNAv-10" target="5hJDcpedC0Y_jNyVwNAv-7">
          <mxGeometry relative="1" as="geometry">
            <mxPoint x="310" y="220" as="targetPoint" />
            <Array as="points">
              <mxPoint x="481" y="480" />
              <mxPoint x="481" y="200" />
              <mxPoint x="310" y="200" />
              <mxPoint x="310" y="230" />
            </Array>
          </mxGeometry>
        </mxCell>
        <mxCell id="5hJDcpedC0Y_jNyVwNAv-23" value="return search" style="edgeLabel;html=1;align=center;verticalAlign=middle;resizable=0;points=[];" vertex="1" connectable="0" parent="5hJDcpedC0Y_jNyVwNAv-22">
          <mxGeometry x="-0.0498" y="1" relative="1" as="geometry">
            <mxPoint as="offset" />
          </mxGeometry>
        </mxCell>
        <mxCell id="5hJDcpedC0Y_jNyVwNAv-27" value="newsAPI finds relevant stories" style="rounded=1;whiteSpace=wrap;html=1;arcSize=40;fontColor=#000000;fillColor=#ffffc0;strokeColor=#ff0000;" vertex="1" parent="1">
          <mxGeometry x="120" y="450" width="120" height="40" as="geometry" />
        </mxCell>
        <mxCell id="5hJDcpedC0Y_jNyVwNAv-28" value="" style="edgeStyle=orthogonalEdgeStyle;html=1;verticalAlign=bottom;endArrow=open;endSize=8;strokeColor=#ff0000;rounded=0;" edge="1" source="5hJDcpedC0Y_jNyVwNAv-27" parent="1" target="5hJDcpedC0Y_jNyVwNAv-7">
          <mxGeometry relative="1" as="geometry">
            <mxPoint x="70" y="50" as="targetPoint" />
            <Array as="points">
              <mxPoint x="61" y="470" />
              <mxPoint x="61" y="225" />
            </Array>
          </mxGeometry>
        </mxCell>
        <mxCell id="5hJDcpedC0Y_jNyVwNAv-29" value="return search" style="edgeLabel;html=1;align=center;verticalAlign=middle;resizable=0;points=[];" vertex="1" connectable="0" parent="5hJDcpedC0Y_jNyVwNAv-28">
          <mxGeometry x="0.1127" y="4" relative="1" as="geometry">
            <mxPoint as="offset" />
          </mxGeometry>
        </mxCell>
        <mxCell id="5hJDcpedC0Y_jNyVwNAv-30" value="" style="ellipse;html=1;shape=endState;fillColor=#000000;strokeColor=#ff0000;" vertex="1" parent="1">
          <mxGeometry x="335" y="115" width="30" height="30" as="geometry" />
        </mxCell>
      </root>
    </mxGraphModel>
  </diagram>
</mxfile>
